<svg width="22" height="25" viewBox="0 0 22 25" fill="none" xmlns="http://www.w3.org/2000/svg">
<path d="M11 0.349609C12.4322 0.349609 13.8057 0.918944 14.8184 1.93164C15.8311 2.94434 16.4004 4.31783 16.4004 5.75V6.34961H21.6504V21.5C21.6504 22.3354 21.3183 23.1368 20.7275 23.7275C20.1368 24.3183 19.3354 24.6504 18.5 24.6504H3.5C2.66457 24.6504 1.8632 24.3183 1.27246 23.7275C0.681721 23.1368 0.349609 22.3354 0.349609 21.5V6.34961H5.59961V5.75C5.59961 4.31783 6.16894 2.94434 7.18164 1.93164C8.19434 0.918944 9.56783 0.349609 11 0.349609ZM2.15039 21.5C2.15039 21.858 2.29175 22.2019 2.54492 22.4551C2.7981 22.7083 3.14196 22.8496 3.5 22.8496H18.5C18.858 22.8496 19.2019 22.7083 19.4551 22.4551C19.7083 22.2019 19.8496 21.858 19.8496 21.5V8.15039H2.15039V21.5ZM11 2.15039C10.0452 2.15039 9.12923 2.52897 8.4541 3.2041C7.77897 3.87923 7.40039 4.79522 7.40039 5.75V6.34961H14.5996V5.75C14.5996 4.79522 14.221 3.87923 13.5459 3.2041C12.8708 2.52897 11.9548 2.15039 11 2.15039Z" fill="black" stroke="black" stroke-width="0.3"/>
</svg>
