<svg width="16" height="16" viewBox="0 0 16 16" fill="none" xmlns="http://www.w3.org/2000/svg">
<path d="M14.6665 3.83334H7.1665M9.6665 12.1667H2.1665" stroke="black" stroke-width="1.5" stroke-linecap="round" stroke-linejoin="round"/>
<path d="M12.1665 14.6667C13.5472 14.6667 14.6665 13.5474 14.6665 12.1667C14.6665 10.786 13.5472 9.66669 12.1665 9.66669C10.7858 9.66669 9.6665 10.786 9.6665 12.1667C9.6665 13.5474 10.7858 14.6667 12.1665 14.6667Z" stroke="black" stroke-width="1.5" stroke-linecap="round" stroke-linejoin="round"/>
<path d="M3.83325 6.33334C5.21396 6.33334 6.33325 5.21406 6.33325 3.83334C6.33325 2.45263 5.21396 1.33334 3.83325 1.33334C2.45254 1.33334 1.33325 2.45263 1.33325 3.83334C1.33325 5.21406 2.45254 6.33334 3.83325 6.33334Z" stroke="black" stroke-width="1.5" stroke-linecap="round" stroke-linejoin="round"/>
</svg>
